<?xml version="1.0" ?>
<svg stroke="currentColor" viewBox="0 0 32 32" xmlns="http://www.w3.org/2000/svg">

<title/>

<g data-name="calculator, finance, calculate, button, mathematics, calculation, office, technology, math, digital" 
id="calculator_finance_calculate_button_mathematics_calculation_office_technology_math_digital">

<path d="M24,2H8A3,3,0,0,0,5,5V27a3,3,0,0,0,3,3H24a3,3,0,0,0,3-3V5A3,3,0,0,0,24,2ZM8,4H24a1,1,0,0,1,1,1v7H7V5A1,1,0,0,1,8,4ZM25,27a1,1,0,0,1-1,1H8a1,1,0,0,1-1-1V14H25Z"/>

<path d="M22,26a1,1,0,0,0,1-1V17a1,1,0,0,0-2,0v8A1,1,0,0,0,22,26Z"/>

<path d="M10,18a1,1,0,0,0,.38-.08,1.15,1.15,0,0,0,.33-.21A1,1,0,0,0,11,17a1.05,1.05,0,0,0-.29-.71l-.15-.12a.76.76,0,0,0-.18-.09.6.6,0,0,0-.19-.06.86.86,0,0,0-.39,0l-.18.06a.76.76,0,0,0-.18.09l-.15.12A1.05,1.05,0,0,0,9,17a1,1,0,0,0,1,1Z"/>

<path d="M13.29,17.71a1,1,0,0,0,1.42,0,1.15,1.15,0,0,0,.21-.33A1,1,0,0,0,15,17a1.05,1.05,0,0,0-.29-.71,1,1,0,0,0-.16-.12.56.56,0,0,0-.17-.09.6.6,0,0,0-.19-.06.86.86,0,0,0-.39,0l-.18.06a.76.76,0,0,0-.18.09,1.58,1.58,0,0,0-.15.12.93.93,0,0,0-.21.33.94.94,0,0,0,0,.76A1.15,1.15,0,0,0,13.29,17.71Z"/><path d="M18,18a1,1,0,0,0,1-1,1.05,1.05,0,0,0-.29-.71,1,1,0,0,0-.16-.12.56.56,0,0,0-.17-.09.6.6,0,0,0-.19-.06.93.93,0,0,0-.57.06,1,1,0,0,0-.33.21A1.05,1.05,0,0,0,17,17a1,1,0,0,0,1,1Z"/><path d="M10,22a1,1,0,0,0,.38-.08,1.15,1.15,0,0,0,.33-.21A1,1,0,0,0,11,21a1.05,1.05,0,0,0-.29-.71,1.58,1.58,0,0,0-.15-.12.76.76,0,0,0-.18-.09.6.6,0,0,0-.19-.06.86.86,0,0,0-.39,0l-.18.06a.76.76,0,0,0-.18.09,1.58,1.58,0,0,0-.15.12A1.05,1.05,0,0,0,9,21a1,1,0,0,0,1,1Z"/><path d="M13.29,21.71a1,1,0,0,0,1.42,0,1.15,1.15,0,0,0,.21-.33.94.94,0,0,0,0-.76,1,1,0,0,0-.21-.33,1,1,0,0,0-.16-.12.56.56,0,0,0-.17-.09.6.6,0,0,0-.19-.06,1,1,0,0,0-.9.27,1,1,0,0,0-.21.33.94.94,0,0,0,0,.76A1.15,1.15,0,0,0,13.29,21.71Z"/><path d="M17.29,21.71A1,1,0,0,0,19,21a1.05,1.05,0,0,0-.29-.71,1,1,0,0,0-.16-.12.56.56,0,0,0-.17-.09.6.6,0,0,0-.19-.06.93.93,0,0,0-.57.06.9.9,0,0,0-.54.54A.84.84,0,0,0,17,21a1,1,0,0,0,.07.38A1.46,1.46,0,0,0,17.29,21.71Z"/><path d="M10,26a1,1,0,0,0,.38-.08,1.15,1.15,0,0,0,.33-.21A1,1,0,0,0,11,25a1.05,1.05,0,0,0-.29-.71l-.15-.12a.76.76,0,0,0-.18-.09.6.6,0,0,0-.19-.06.86.86,0,0,0-.39,0l-.18.06a.76.76,0,0,0-.18.09l-.15.12A1.05,1.05,0,0,0,9,25a1,1,0,0,0,1,1Z"/><path d="M13.29,25.71a1,1,0,0,0,1.42,0,1.15,1.15,0,0,0,.21-.33.94.94,0,0,0,0-.76,1,1,0,0,0-.21-.33,1,1,0,0,0-.16-.12.56.56,0,0,0-.17-.09.6.6,0,0,0-.19-.06,1,1,0,0,0-.9.27,1,1,0,0,0-.21.33.94.94,0,0,0,0,.76A1.15,1.15,0,0,0,13.29,25.71Z"/>

<path d="M18,26a1,1,0,0,0,1-1,1.05,1.05,0,0,0-.29-.71,1,1,0,0,0-.16-.12.56.56,0,0,0-.17-.09.6.6,0,0,0-.19-.06.93.93,0,0,0-.57.06.9.9,0,0,0-.54.54A.84.84,0,0,0,17,25a1,1,0,0,0,1,1Z"/>

</g>

</svg>
